<mxfile host="app.diagrams.net" modified="2022-12-29T03:33:56.734Z" agent="5.0 (Windows NT 10.0; Win64; x64) AppleWebKit/537.36 (KHTML, like Gecko) Chrome/108.0.0.0 Safari/537.36" etag="ihiBM8LucN35crpzyZod" version="20.4.1" type="github">
  <diagram id="vItLKapP7psKqnZ9KHX5" name="Page-1">
    <mxGraphModel dx="868" dy="482" grid="1" gridSize="10" guides="1" tooltips="1" connect="1" arrows="1" fold="1" page="1" pageScale="1" pageWidth="850" pageHeight="1100" math="0" shadow="0">
      <root>
        <mxCell id="0" />
        <mxCell id="1" parent="0" />
        <mxCell id="Q9WlDVke3u1tq2KtrG7N-2" value="barang_id" style="swimlane;fontStyle=0;childLayout=stackLayout;horizontal=1;startSize=40;horizontalStack=0;resizeParent=1;resizeParentMax=0;resizeLast=0;collapsible=1;marginBottom=0;fontSize=14;fillColor=#e3c800;fontColor=#000000;strokeColor=#B09500;" vertex="1" parent="1">
          <mxGeometry x="200" y="40" width="210" height="240" as="geometry" />
        </mxCell>
        <mxCell id="Q9WlDVke3u1tq2KtrG7N-6" value="" style="endArrow=none;html=1;rounded=0;" edge="1" parent="Q9WlDVke3u1tq2KtrG7N-2">
          <mxGeometry width="50" height="50" relative="1" as="geometry">
            <mxPoint x="40" y="240" as="sourcePoint" />
            <mxPoint x="40" as="targetPoint" />
            <Array as="points">
              <mxPoint x="40" y="110" />
              <mxPoint x="40" y="50" />
            </Array>
          </mxGeometry>
        </mxCell>
        <mxCell id="Q9WlDVke3u1tq2KtrG7N-45" value="" style="endArrow=none;html=1;rounded=0;fontSize=14;" edge="1" parent="Q9WlDVke3u1tq2KtrG7N-2">
          <mxGeometry width="50" height="50" relative="1" as="geometry">
            <mxPoint y="80" as="sourcePoint" />
            <mxPoint x="210" y="80" as="targetPoint" />
          </mxGeometry>
        </mxCell>
        <mxCell id="Q9WlDVke3u1tq2KtrG7N-38" value="&lt;font style=&quot;font-size: 14px;&quot;&gt;PK&lt;/font&gt;" style="text;html=1;align=center;verticalAlign=middle;resizable=0;points=[];autosize=1;strokeColor=none;fillColor=none;" vertex="1" parent="1">
          <mxGeometry x="200" y="85" width="40" height="30" as="geometry" />
        </mxCell>
        <mxCell id="Q9WlDVke3u1tq2KtrG7N-44" value="&lt;font style=&quot;font-size: 14px;&quot;&gt;id_barang&lt;/font&gt;" style="text;html=1;align=center;verticalAlign=middle;resizable=0;points=[];autosize=1;strokeColor=none;fillColor=none;" vertex="1" parent="1">
          <mxGeometry x="235" y="85" width="90" height="30" as="geometry" />
        </mxCell>
        <mxCell id="Q9WlDVke3u1tq2KtrG7N-57" value="&amp;nbsp; &amp;nbsp;nama_barang" style="text;html=1;align=center;verticalAlign=middle;resizable=0;points=[];autosize=1;strokeColor=none;fillColor=none;fontSize=14;" vertex="1" parent="1">
          <mxGeometry x="230" y="125" width="120" height="30" as="geometry" />
        </mxCell>
        <mxCell id="Q9WlDVke3u1tq2KtrG7N-61" value="&amp;nbsp; &amp;nbsp;stok" style="text;html=1;align=center;verticalAlign=middle;resizable=0;points=[];autosize=1;strokeColor=none;fillColor=none;fontSize=14;" vertex="1" parent="1">
          <mxGeometry x="230" y="205" width="60" height="30" as="geometry" />
        </mxCell>
        <mxCell id="Q9WlDVke3u1tq2KtrG7N-64" value="&amp;nbsp; &amp;nbsp; id_supplier" style="text;html=1;align=center;verticalAlign=middle;resizable=0;points=[];autosize=1;strokeColor=none;fillColor=none;fontSize=14;" vertex="1" parent="1">
          <mxGeometry x="225" y="245" width="110" height="30" as="geometry" />
        </mxCell>
        <mxCell id="Q9WlDVke3u1tq2KtrG7N-69" value="harga" style="text;html=1;align=center;verticalAlign=middle;resizable=0;points=[];autosize=1;strokeColor=none;fillColor=none;fontSize=14;" vertex="1" parent="1">
          <mxGeometry x="240" y="165" width="60" height="30" as="geometry" />
        </mxCell>
        <mxCell id="Q9WlDVke3u1tq2KtrG7N-71" value="        supplier_tb" style="swimlane;fontStyle=0;childLayout=stackLayout;horizontal=1;startSize=40;horizontalStack=0;resizeParent=1;resizeParentMax=0;resizeLast=0;collapsible=1;marginBottom=0;fontSize=14;fillColor=#e3c800;fontColor=#000000;strokeColor=#B09500;" vertex="1" parent="1">
          <mxGeometry x="600" y="40" width="210" height="200" as="geometry" />
        </mxCell>
        <mxCell id="Q9WlDVke3u1tq2KtrG7N-72" value="" style="endArrow=none;html=1;rounded=0;" edge="1" parent="Q9WlDVke3u1tq2KtrG7N-71">
          <mxGeometry width="50" height="50" relative="1" as="geometry">
            <mxPoint x="40" y="200" as="sourcePoint" />
            <mxPoint x="40" as="targetPoint" />
            <Array as="points">
              <mxPoint x="40" y="110" />
              <mxPoint x="40" y="50" />
            </Array>
          </mxGeometry>
        </mxCell>
        <mxCell id="Q9WlDVke3u1tq2KtrG7N-73" value="" style="endArrow=none;html=1;rounded=0;fontSize=14;" edge="1" parent="Q9WlDVke3u1tq2KtrG7N-71">
          <mxGeometry width="50" height="50" relative="1" as="geometry">
            <mxPoint y="80" as="sourcePoint" />
            <mxPoint x="210" y="80" as="targetPoint" />
          </mxGeometry>
        </mxCell>
        <mxCell id="Q9WlDVke3u1tq2KtrG7N-74" value="PK" style="text;html=1;align=center;verticalAlign=middle;resizable=0;points=[];autosize=1;strokeColor=none;fillColor=none;fontSize=14;" vertex="1" parent="1">
          <mxGeometry x="600" y="85" width="40" height="30" as="geometry" />
        </mxCell>
        <mxCell id="Q9WlDVke3u1tq2KtrG7N-75" value="&amp;nbsp; &amp;nbsp; &amp;nbsp; &amp;nbsp; &amp;nbsp; &amp;nbsp; &amp;nbsp;id_supplier" style="text;html=1;align=center;verticalAlign=middle;resizable=0;points=[];autosize=1;strokeColor=none;fillColor=none;fontSize=14;" vertex="1" parent="1">
          <mxGeometry x="590" y="85" width="140" height="30" as="geometry" />
        </mxCell>
        <mxCell id="Q9WlDVke3u1tq2KtrG7N-76" value="&amp;nbsp; &amp;nbsp; &amp;nbsp; &amp;nbsp; &amp;nbsp; &amp;nbsp; &amp;nbsp; &amp;nbsp; &amp;nbsp;nama_supplier" style="text;html=1;align=center;verticalAlign=middle;resizable=0;points=[];autosize=1;strokeColor=none;fillColor=none;fontSize=14;" vertex="1" parent="1">
          <mxGeometry x="570" y="125" width="180" height="30" as="geometry" />
        </mxCell>
        <mxCell id="Q9WlDVke3u1tq2KtrG7N-77" value="&amp;nbsp; &amp;nbsp; &amp;nbsp;no_telp" style="text;html=1;align=center;verticalAlign=middle;resizable=0;points=[];autosize=1;strokeColor=none;fillColor=none;fontSize=14;" vertex="1" parent="1">
          <mxGeometry x="615" y="165" width="90" height="30" as="geometry" />
        </mxCell>
        <mxCell id="Q9WlDVke3u1tq2KtrG7N-80" value="&amp;nbsp; &amp;nbsp; alamat" style="text;html=1;align=center;verticalAlign=middle;resizable=0;points=[];autosize=1;strokeColor=none;fillColor=none;fontSize=14;" vertex="1" parent="1">
          <mxGeometry x="620" y="205" width="80" height="30" as="geometry" />
        </mxCell>
      </root>
    </mxGraphModel>
  </diagram>
</mxfile>
